<svg
width="18"
height="18"
viewBox="0 0 48 48"
xmlns="http://www.w3.org/2000/svg"
>
    <path
        fill="#EA4335"
        d="M24 9.5c3.54 0 6.02 1.53 7.4 2.8l5.4-5.4C33.24 3.8 28.9 1.5 24 1.5 14.73 1.5 6.86 6.84 3.1 14.6l6.55 5.09C11.44 13.13 17.2 9.5 24 9.5z"
    />
    <path
        fill="#4285F4"
        d="M46.1 24.5c0-1.55-.14-3.05-.4-4.5H24v9h12.4c-.54 2.9-2.2 5.36-4.66 7.04l7.14 5.54c4.18-3.86 6.22-9.54 6.22-17.08z"
    />
    <path
        fill="#FBBC05"
        d="M9.65 28.69c-.48-1.42-.75-2.94-.75-4.44s.27-3.02.75-4.44l-6.55-5.09C1.7 17.84 1 20.86 1 24.25s.7 6.41 2.1 9.53l6.55-5.09z"
    />
    <path
        fill="#34A853"
        d="M24 47c6.48 0 11.92-2.14 15.9-5.82l-7.14-5.54c-1.98 1.33-4.52 2.12-8.76 2.12-6.8 0-12.56-3.63-14.35-8.49l-6.55 5.09C6.86 41.16 14.73 47 24 47z"
    />
</svg>